<svg width="494" height="165" viewBox="0 0 494 165" fill="none" xmlns="http://www.w3.org/2000/svg">
<rect opacity="0.8" x="146.28" y="18.2849" width="18.285" height="91.8602" fill="black"/>
<rect opacity="0.8" x="292.56" y="18.2849" width="18.285" height="91.8602" fill="black"/>
<rect opacity="0.8" x="438.839" y="18.2849" width="18.285" height="91.8602" fill="black"/>
<rect opacity="0.8" x="201.135" y="37.0052" width="18.285" height="73.1398" fill="#FF9DBC"/>
<rect opacity="0.8" x="274.274" y="37.0052" width="18.285" height="73.1398" fill="#9AC836"/>
<rect opacity="0.8" x="347.414" y="37.0052" width="18.285" height="73.1398" fill="#FF9DBC"/>
<rect opacity="0.8" x="127.995" y="37.0052" width="18.285" height="73.1398" fill="#FFB662"/>
<rect opacity="0.8" x="54.855" y="37.0052" width="18.285" height="73.1398" fill="#FEE406"/>
<rect opacity="0.8" x="420.554" y="37.0052" width="18.285" height="73.1398" fill="#82AF9B"/>
<rect opacity="0.8" x="182.85" y="73.5752" width="18.285" height="18.285" fill="black"/>
<rect opacity="0.8" x="329.129" y="73.5752" width="18.285" height="18.285" fill="black"/>
<rect opacity="0.8" x="457.124" y="73.5752" width="18.285" height="18.285" fill="#AEB7ED"/>
<rect opacity="0.8" x="475.409" y="18.2849" width="18.285" height="18.285" fill="#6274DB"/>
<rect opacity="0.8" x="329.129" y="55.2903" width="18.285" height="18.285" fill="#6274DB"/>
<rect opacity="0.8" x="310.844" y="37.0052" width="18.285" height="18.285" fill="#FF9DBC"/>
<rect opacity="0.8" y="110.145" width="18.285" height="18.285" fill="#376EA5"/>
<rect opacity="0.8" x="18.2852" y="91.8601" width="18.285" height="18.285" fill="#60DFFF"/>
<rect opacity="0.8" x="292.56" y="110.145" width="18.285" height="18.285" fill="#60DFFF"/>
<rect opacity="0.8" x="310.844" y="128.43" width="18.285" height="18.285" fill="#FFB662"/>
<rect opacity="0.8" x="383.984" y="110.145" width="18.285" height="18.285" fill="#FFB662"/>
<rect opacity="0.8" x="73.1396" y="110.145" width="18.285" height="18.285" fill="#6274DB"/>
<rect opacity="0.8" x="109.71" y="110.145" width="54.8549" height="18.285" fill="#E1555A"/>
<rect opacity="0.8" x="109.71" y="18.7203" width="18.285" height="18.285" fill="#E1B496"/>
<rect opacity="0.8" x="54.855" y="18.7203" width="18.285" height="18.285" fill="#229396"/>
<rect opacity="0.8" y="18.7203" width="18.285" height="18.285" fill="#9BBE87"/>
<rect opacity="0.8" x="237.705" y="18.7203" width="18.285" height="18.285" fill="#05D7A0"/>
<rect opacity="0.8" x="219.419" y="0.435303" width="18.285" height="18.285" fill="#91E6F5"/>
<rect opacity="0.8" x="274.274" y="18.7203" width="18.285" height="18.285" fill="#DC3282"/>
<rect opacity="0.8" x="127.995" y="128.43" width="18.285" height="18.285" fill="#E1555A"/>
<rect opacity="0.8" x="146.28" y="146.715" width="18.285" height="18.285" fill="#91E6F5"/>
<rect opacity="0.8" x="182.85" y="146.715" width="18.285" height="18.285" fill="#D7B428"/>
<rect opacity="0.8" x="457.124" y="128.43" width="18.285" height="18.285" fill="#E66E50"/>
<rect opacity="0.8" x="164.564" y="110.145" width="18.285" height="18.285" fill="#1BBF00"/>
<rect opacity="0.8" x="201.135" y="128.43" width="18.285" height="18.285" fill="#F2D9A0"/>
<rect opacity="0.8" x="475.409" y="110.145" width="18.285" height="18.285" fill="#9E373E"/>
<rect opacity="0.8" x="18.2852" width="18.285" height="18.285" fill="#96C3D7"/>
<rect opacity="0.8" x="182.85" y="0.435303" width="18.285" height="18.285" fill="#506E00"/>
<rect opacity="0.8" x="91.4248" y="0.435303" width="18.285" height="18.285" fill="#E1555A"/>
<rect opacity="0.8" x="347.414" y="0.435303" width="18.285" height="18.285" fill="#05A6A6"/>
<rect opacity="0.8" x="365.699" y="18.7203" width="18.285" height="18.285" fill="#F5D214"/>
<rect opacity="0.8" x="438.839" width="18.285" height="18.285" fill="#E1555A"/>
<rect opacity="0.8" x="201.135" y="18.7203" width="18.285" height="18.285" fill="#8CB45F"/>
<rect opacity="0.8" x="91.4248" y="54.8549" width="18.285" height="37.0053" fill="#96C3D7"/>
<rect opacity="0.8" x="383.984" y="37.0052" width="18.285" height="54.8549" fill="#F5D7AF"/>
<rect opacity="0.8" x="164.564" y="73.5752" width="18.285" height="36.5699" fill="#DCEBC3"/>
<rect opacity="0.8" x="310.844" y="0.435303" width="18.285" height="36.5699" fill="#1BBF00"/>
<rect opacity="0.8" x="237.705" y="55.2903" width="18.285" height="18.285" fill="#FFB662"/>
<rect opacity="0.8" x="329.129" y="73.5752" width="18.285" height="18.285" fill="black"/>
<rect x="73.1396" y="54.8549" width="18.285" height="55.2902" fill="black"/>
<rect x="73.1396" y="55.2903" width="18.285" height="54.8549" transform="rotate(-90 73.1396 55.2903)" fill="black"/>
<rect x="73.1396" y="110.145" width="18.285" height="54.8549" transform="rotate(-90 73.1396 110.145)" fill="black"/>
<rect x="109.71" y="54.8549" width="18.285" height="55.2902" fill="black"/>
<rect x="365.699" y="37.0052" width="18.285" height="73.1398" fill="black"/>
<rect x="365.699" y="110.145" width="18.285" height="54.8549" transform="rotate(-90 365.699 110.145)" fill="black"/>
<rect x="402.269" y="37.0052" width="18.285" height="73.1398" fill="black"/>
<rect x="292.56" y="18.2849" width="18.285" height="91.8602" fill="black"/>
<rect x="310.844" y="55.2903" width="18.285" height="18.285" fill="black"/>
<rect x="329.129" y="91.8601" width="18.285" height="18.285" fill="black"/>
<rect x="438.839" y="18.2849" width="18.285" height="91.8602" fill="black"/>
<rect x="457.124" y="55.2903" width="18.285" height="18.285" fill="black"/>
<rect x="475.409" y="91.8601" width="18.285" height="18.285" fill="black"/>
<rect x="457.124" y="91.8601" width="18.285" height="18.285" fill="black"/>
<rect x="475.409" y="73.5752" width="18.285" height="18.285" fill="black"/>
<rect x="146.28" y="18.2849" width="18.285" height="91.8602" fill="black"/>
<rect x="164.564" y="55.2903" width="18.285" height="18.285" fill="black"/>
<rect x="182.85" y="91.8601" width="18.285" height="18.285" fill="black"/>
<rect x="182.85" y="37.0052" width="18.285" height="18.285" fill="black"/>
<rect x="219.419" y="55.2903" width="18.285" height="54.8549" transform="rotate(-90 219.419 55.2903)" fill="black"/>
<rect x="219.419" y="110.145" width="18.285" height="54.8549" transform="rotate(-90 219.419 110.145)" fill="black"/>
<rect x="219.419" y="37.0052" width="18.285" height="73.1398" fill="black"/>
<rect x="255.989" y="55.2903" width="18.285" height="18.285" fill="black"/>
<rect x="36.5698" y="53.9841" width="18.285" height="91.8602" fill="black"/>
<rect x="36.5698" y="18.2849" width="18.285" height="18.285" fill="black"/>
<rect x="18.2852" y="127.559" width="18.285" height="18.285" fill="black"/>
</svg>
