<svg width="1134" height="379" viewBox="0 0 1134 379" fill="none" xmlns="http://www.w3.org/2000/svg">
<rect x="336" y="42" width="42" height="211" fill="black"/>
<rect x="672" y="42" width="42" height="211" fill="black"/>
<rect x="1008" y="42" width="42" height="211" fill="black"/>
<rect x="462" y="85" width="42" height="168" fill="#FF6537"/>
<rect x="630" y="85" width="42" height="168" fill="#8B5CF6"/>
<rect x="798" y="85" width="42" height="168" fill="#B7D030"/>
<rect x="294" y="85" width="42" height="168" fill="#3D9DE3"/>
<rect x="126" y="85" width="42" height="168" fill="#FACC15"/>
<rect x="966" y="85" width="42" height="168" fill="#FACC15"/>
<rect x="420" y="169" width="42" height="42" fill="black"/>
<rect x="756" y="169" width="42" height="42" fill="black"/>
<rect x="1050" y="169" width="42" height="42" fill="#FACC15"/>
<rect x="1092" y="42" width="42" height="42" fill="#8B5CF6"/>
<rect x="756" y="127" width="42" height="42" fill="#3D9DE3"/>
<rect x="714" y="85" width="42" height="42" fill="#FF6537"/>
<rect y="253" width="42" height="42" fill="#3D9DE3"/>
<rect x="42" y="211" width="42" height="42" fill="#8B5CF6"/>
<rect x="672" y="253" width="42" height="42" fill="#3D9DE3"/>
<rect x="714" y="295" width="42" height="42" fill="#FACC15"/>
<rect x="882" y="253" width="42" height="42" fill="#FACC15"/>
<rect x="168" y="253" width="42" height="42" fill="#8B5CF6"/>
<rect x="252" y="253" width="126" height="42" fill="#FF6537"/>
<rect x="252" y="43" width="42" height="42" fill="#B0CC15"/>
<rect x="126" y="43" width="42" height="42" fill="#3D9DE3"/>
<rect y="43" width="42" height="42" fill="#B7D030"/>
<rect x="546" y="43" width="42" height="42" fill="#FACC15"/>
<rect x="504" y="1" width="42" height="42" fill="#3D9DE3"/>
<rect x="630" y="43" width="42" height="42" fill="#FF6537"/>
<rect x="294" y="295" width="42" height="42" fill="#FF6537"/>
<rect x="336" y="337" width="42" height="42" fill="#3D9DE3"/>
<rect x="420" y="337" width="42" height="42" fill="#FACC15"/>
<rect x="1050" y="295" width="42" height="42" fill="#FF6537"/>
<rect x="378" y="253" width="42" height="42" fill="#B7D030"/>
<rect x="462" y="295" width="42" height="42" fill="#8B5CF6"/>
<rect x="1092" y="253" width="42" height="42" fill="#FF6537"/>
<rect x="42" width="42" height="42" fill="#FF6537"/>
<rect x="420" y="1" width="42" height="42" fill="#B7D030"/>
<rect x="210" y="1" width="42" height="42" fill="#FF6537"/>
<rect x="798" y="1" width="42" height="42" fill="#3D9DE3"/>
<rect x="840" y="43" width="42" height="42" fill="#FACC15"/>
<rect x="1008" width="42" height="42" fill="#FF6537"/>
<rect x="462" y="43" width="42" height="42" fill="#3D9DE3"/>
<rect x="210" y="126" width="42" height="85" fill="#FACC15"/>
<rect x="882" y="85" width="42" height="126" fill="#FACC15"/>
<rect x="378" y="169" width="42" height="84" fill="#FACC15"/>
<rect x="714" y="1" width="42" height="84" fill="#B7D030"/>
<rect x="546" y="127" width="42" height="42" fill="#FACC15"/>
<rect x="756" y="169" width="42" height="42" fill="black"/>
<rect x="168" y="126" width="42" height="127" fill="black"/>
<rect x="168" y="127" width="42" height="126" transform="rotate(-90 168 127)" fill="black"/>
<rect x="168" y="253" width="42" height="126" transform="rotate(-90 168 253)" fill="black"/>
<rect x="252" y="126" width="42" height="127" fill="black"/>
<rect x="840" y="85" width="42" height="168" fill="black"/>
<rect x="840" y="253" width="42" height="126" transform="rotate(-90 840 253)" fill="black"/>
<rect x="924" y="85" width="42" height="168" fill="black"/>
<rect x="672" y="42" width="42" height="211" fill="black"/>
<rect x="714" y="127" width="42" height="42" fill="black"/>
<rect x="756" y="211" width="42" height="42" fill="black"/>
<rect x="1008" y="42" width="42" height="211" fill="black"/>
<rect x="1050" y="127" width="42" height="42" fill="black"/>
<rect x="1092" y="211" width="42" height="42" fill="black"/>
<rect x="1050" y="211" width="42" height="42" fill="black"/>
<rect x="1092" y="169" width="42" height="42" fill="black"/>
<rect x="336" y="42" width="42" height="211" fill="black"/>
<rect x="378" y="127" width="42" height="42" fill="black"/>
<rect x="420" y="211" width="42" height="42" fill="black"/>
<rect x="420" y="85" width="42" height="42" fill="black"/>
<rect x="504" y="127" width="42" height="126" transform="rotate(-90 504 127)" fill="black"/>
<rect x="504" y="253" width="42" height="126" transform="rotate(-90 504 253)" fill="black"/>
<rect x="504" y="85" width="42" height="168" fill="black"/>
<rect x="588" y="127" width="42" height="42" fill="black"/>
<rect x="84" y="124" width="42" height="211" fill="black"/>
<rect x="84" y="42" width="42" height="42" fill="black"/>
<rect x="42" y="293" width="42" height="42" fill="black"/>
</svg>
